<svg width="156" height="93" viewBox="0 0 156 93" fill="none" xmlns="http://www.w3.org/2000/svg">
<path fill-rule="evenodd" clip-rule="evenodd" d="M22.6037 28.2875C34.8593 28.2875 44.768 38.1962 44.768 50.4517C44.768 62.7073 34.8593 72.616 22.6037 72.616C10.3482 72.616 0.439453 62.7073 0.439453 50.4517C0.439453 38.1962 10.3482 28.2875 22.6037 28.2875ZM22.6037 33.3722C31.991 33.3722 39.6833 41.0645 39.6833 50.4517C39.6833 59.839 31.991 67.5313 22.6037 67.5313C13.2165 67.5313 5.5242 59.839 5.5242 50.4517C5.5242 41.0645 13.2165 33.3722 22.6037 33.3722Z" fill="#373435"/>
<path fill-rule="evenodd" clip-rule="evenodd" d="M22.6048 44.9741C25.7339 44.9741 28.2111 47.4513 28.2111 50.5803C28.2111 53.7094 25.7339 56.1866 22.6048 56.1866C19.4757 56.1866 16.9985 53.7094 16.9985 50.5803C16.9985 47.4513 19.4757 44.9741 22.6048 44.9741Z" fill="#D83337"/>
<path fill-rule="evenodd" clip-rule="evenodd" d="M78.1419 44.9741C81.271 44.9741 83.7482 47.4513 83.7482 50.5803C83.7482 53.7094 81.271 56.1866 78.1419 56.1866C75.0128 56.1866 72.5356 53.7094 72.5356 50.5803C72.5356 47.4513 75.0128 44.9741 78.1419 44.9741Z" fill="#373435"/>
<path fill-rule="evenodd" clip-rule="evenodd" d="M133.679 44.9741C136.808 44.9741 139.285 47.4513 139.285 50.5803C139.285 53.7094 136.808 56.1866 133.679 56.1866C130.55 56.1866 128.073 53.7094 128.073 50.5803C128.073 47.4513 130.55 44.9741 133.679 44.9741Z" fill="#D83337"/>
<path fill-rule="evenodd" clip-rule="evenodd" d="M72.5441 0.908981C74.239 0.908981 75.6732 2.34314 75.6732 4.03806C75.6732 5.73297 74.239 7.16713 72.5441 7.16713C70.8492 7.16713 69.415 5.73297 69.415 4.03806C69.415 2.34314 70.8492 0.908981 72.5441 0.908981Z" fill="#D83337"/>
<path fill-rule="evenodd" clip-rule="evenodd" d="M72.5441 11.991C74.239 11.991 75.6732 13.4251 75.6732 15.12C75.6732 16.8149 74.239 18.2491 72.5441 18.2491C70.8492 18.2491 69.415 16.8149 69.415 15.12C69.415 13.4251 70.8492 11.991 72.5441 11.991Z" fill="#373435"/>
<path fill-rule="evenodd" clip-rule="evenodd" d="M88.0524 0.908981C89.7473 0.908981 91.1815 2.34314 91.1815 4.03806C91.1815 5.73297 89.7473 7.16713 88.0524 7.16713C86.3575 7.16713 84.9233 5.73297 84.9233 4.03806C84.9233 2.34314 86.3575 0.908981 88.0524 0.908981Z" fill="#373435"/>
<path fill-rule="evenodd" clip-rule="evenodd" d="M88.0524 11.991C89.7473 11.991 91.1815 13.4251 91.1815 15.12C91.1815 16.8149 89.7473 18.2491 88.0524 18.2491C86.3575 18.2491 84.9233 16.8149 84.9233 15.12C84.9233 13.4251 86.3575 11.991 88.0524 11.991Z" fill="#D83337"/>
<path fill-rule="evenodd" clip-rule="evenodd" d="M103.561 0.908981C105.256 0.908981 106.69 2.34314 106.69 4.03806C106.69 5.73297 105.256 7.16713 103.561 7.16713C101.866 7.16713 100.432 5.73297 100.432 4.03806C100.432 2.34314 101.866 0.908981 103.561 0.908981Z" fill="#D83337"/>
<path fill-rule="evenodd" clip-rule="evenodd" d="M103.561 11.991C105.256 11.991 106.69 13.4251 106.69 15.12C106.69 16.8149 105.256 18.2491 103.561 18.2491C101.866 18.2491 100.432 16.8149 100.432 15.12C100.432 13.4251 101.866 11.991 103.561 11.991Z" fill="#373435"/>
<path fill-rule="evenodd" clip-rule="evenodd" d="M119.07 0.908981C120.764 0.908981 122.199 2.34314 122.199 4.03806C122.199 5.73297 120.764 7.16713 119.07 7.16713C117.375 7.16713 115.94 5.73297 115.94 4.03806C115.94 2.34314 117.375 0.908981 119.07 0.908981Z" fill="#373435"/>
<path fill-rule="evenodd" clip-rule="evenodd" d="M119.07 11.991C120.764 11.991 122.199 13.4251 122.199 15.12C122.199 16.8149 120.764 18.2491 119.07 18.2491C117.375 18.2491 115.94 16.8149 115.94 15.12C115.94 13.4251 117.375 11.991 119.07 11.991Z" fill="#D83337"/>
<path fill-rule="evenodd" clip-rule="evenodd" d="M134.609 0.908981C136.304 0.908981 137.738 2.34314 137.738 4.03806C137.738 5.73297 136.304 7.16713 134.609 7.16713C132.914 7.16713 131.48 5.73297 131.48 4.03806C131.48 2.34314 132.914 0.908981 134.609 0.908981Z" fill="#D83337"/>
<path fill-rule="evenodd" clip-rule="evenodd" d="M134.609 11.991C136.304 11.991 137.738 13.4251 137.738 15.12C137.738 16.8149 136.304 18.2491 134.609 18.2491C132.914 18.2491 131.48 16.8149 131.48 15.12C131.48 13.4251 132.914 11.991 134.609 11.991Z" fill="#373435"/>
<path fill-rule="evenodd" clip-rule="evenodd" d="M150.118 0.908981C151.813 0.908981 153.247 2.34314 153.247 4.03806C153.247 5.73297 151.813 7.16713 150.118 7.16713C148.423 7.16713 146.989 5.73297 146.989 4.03806C146.989 2.34314 148.423 0.908981 150.118 0.908981Z" fill="#373435"/>
<path fill-rule="evenodd" clip-rule="evenodd" d="M150.118 11.991C151.813 11.991 153.247 13.4251 153.247 15.12C153.247 16.8149 151.813 18.2491 150.118 18.2491C148.423 18.2491 146.989 16.8149 146.989 15.12C146.989 13.4251 148.423 11.991 150.118 11.991Z" fill="#D83337"/>
<path fill-rule="evenodd" clip-rule="evenodd" d="M56.753 8.98961H60.2732C60.6643 8.98961 61.0554 9.38074 61.0554 9.90226V36.4994C65.0972 31.545 71.3553 28.4159 78.2653 28.4159C90.5209 28.4159 100.43 38.3247 100.43 50.5802C100.43 62.8358 90.5209 72.7445 78.2653 72.7445C66.7921 72.7445 57.4048 64.0092 56.2314 52.927V52.2751C56.2314 51.7536 56.2314 51.1017 56.2314 50.5802C56.2314 50.0587 56.2314 49.4068 56.2314 48.8853V9.90226C56.2314 9.38074 56.6226 8.98961 57.0137 8.98961H56.753ZM78.135 33.5007C87.5222 33.5007 95.2145 41.193 95.2145 50.5802C95.2145 59.9675 87.5222 67.6598 78.135 67.6598C68.7477 67.6598 61.0554 59.9675 61.0554 50.5802C61.0554 41.193 68.7477 33.5007 78.135 33.5007Z" fill="#D83337"/>
<path fill-rule="evenodd" clip-rule="evenodd" d="M112.163 92.1698H115.683C116.074 92.1698 116.465 91.7786 116.465 91.2571V64.66C120.507 69.6144 126.765 72.7434 133.675 72.7434C145.931 72.7434 155.839 62.8347 155.839 50.5792C155.839 38.3236 145.931 28.4149 133.675 28.4149C122.202 28.4149 112.815 37.1502 111.641 48.2324V48.8843C111.641 49.4058 111.641 50.0577 111.641 50.5792C111.641 51.1007 111.641 51.7526 111.641 52.2741V91.2571C111.641 91.7786 112.032 92.1698 112.423 92.1698H112.163ZM133.545 67.6587C142.932 67.6587 150.624 59.9664 150.624 50.5792C150.624 41.1919 142.932 33.4996 133.545 33.4996C124.157 33.4996 116.465 41.1919 116.465 50.5792C116.465 59.9664 124.157 67.6587 133.545 67.6587Z" fill="#373435"/>
<path d="M7.60449 85.9152V78.0925H10.6032C11.1247 78.0925 11.5158 78.0925 11.7766 78.2229C12.1677 78.2229 12.4285 78.3533 12.6892 78.614C12.95 78.7444 13.2108 79.0052 13.3411 79.3963C13.4715 79.6571 13.6019 80.0482 13.6019 80.4393C13.6019 81.0912 13.3411 81.6127 12.95 82.1343C12.5589 82.6558 11.7766 82.7861 10.6032 82.7861H8.64752V85.9152H7.60449ZM8.64752 81.7431H10.7336C11.3855 81.7431 11.907 81.6127 12.1677 81.352C12.4285 81.0912 12.5589 80.7001 12.5589 80.309C12.5589 79.9178 12.4285 79.6571 12.2981 79.5267C12.1677 79.2659 11.907 79.1356 11.6462 79.0052C11.5158 79.0052 11.1247 78.8748 10.7336 78.8748H8.7779V81.6127L8.64752 81.7431ZM14.9057 85.9152V78.0925H18.4259C19.0778 78.0925 19.5993 78.2229 19.9904 78.3533C20.3815 78.4837 20.6423 78.7444 20.9031 79.1356C21.1638 79.5267 21.1638 79.9178 21.1638 80.309C21.1638 80.8305 21.0334 81.352 20.6423 81.7431C20.2512 82.1343 19.7297 82.395 18.9474 82.5254C19.2081 82.6558 19.4689 82.7861 19.5993 82.9165C19.86 83.1773 20.2512 83.5684 20.5119 83.9595L21.8157 86.0456H20.5119L19.4689 84.3507C19.2081 83.8292 18.9474 83.5684 18.6866 83.3077C18.4259 83.0469 18.2955 82.9165 18.1651 82.7861C18.0347 82.6558 17.9044 82.6558 17.6436 82.5254C17.5132 82.5254 17.3828 82.5254 17.1221 82.5254H15.9487V86.0456H14.9057V85.9152ZM15.9487 81.4824H18.1651C18.6866 81.4824 18.9474 81.4824 19.3385 81.352C19.5993 81.2216 19.86 81.0912 19.9904 80.8305C20.1208 80.5697 20.2512 80.4393 20.2512 80.1786C20.2512 79.7874 20.1208 79.5267 19.86 79.2659C19.5993 79.0052 19.2081 78.8748 18.5563 78.8748H16.0791V81.4824H15.9487ZM22.9891 85.9152V78.0925H24.0321V85.9152H22.9891ZM28.0739 85.9152L25.0752 78.0925H26.2486L28.3346 83.8292C28.465 84.3507 28.5954 84.7418 28.7257 85.1329C28.8561 84.7418 28.9865 84.2203 29.1169 83.8292L31.2029 78.0925H32.246L29.1169 85.9152H28.0739ZM31.4637 85.9152L34.4624 78.0925H35.6358L38.8952 85.9152H37.7218L36.8092 83.5684H33.5497L32.6371 85.9152H31.5941H31.4637ZM33.6801 82.6558H36.2877L35.5054 80.4393C35.2446 79.7874 35.1143 79.2659 34.9839 78.8748C34.8535 79.3963 34.7231 79.9178 34.5928 80.309L33.6801 82.6558ZM40.7205 85.9152V79.0052H38.113V78.0925H44.3711V79.0052H41.7636V85.9152H40.7205ZM45.4141 85.9152V78.0925H51.0204V79.0052H46.3268V81.352H50.6293V82.2646H46.3268V84.8722H51.1508V85.7848H45.2838L45.4141 85.9152ZM55.714 85.9152V78.0925H56.757V85.0026H60.6684V85.9152H55.714ZM61.9722 85.9152V78.0925H63.0152V85.9152H61.9722ZM64.8405 85.9152V78.0925H66.405L68.2303 83.6988C68.3607 84.2203 68.4911 84.6114 68.6214 84.8722C68.7518 84.6114 68.8822 84.2203 69.0126 83.5684L70.8379 78.0925H72.272V85.9152H71.229V79.3963L69.0126 85.9152H68.0999L65.8835 79.2659V85.9152H64.8405ZM74.2277 85.9152V78.0925H75.2707V85.9152H74.2277ZM79.0517 85.9152V79.0052H76.4441V78.0925H82.7023V79.0052H80.0947V85.9152H79.0517ZM83.7453 85.9152V78.0925H89.3516V79.0052H84.6579V81.352H88.9604V82.2646H84.6579V84.8722H89.4819V85.7848H83.6149L83.7453 85.9152ZM91.0465 85.9152V78.0925H93.7844C94.4363 78.0925 94.8274 78.0925 95.2186 78.2229C95.6097 78.3533 96.0008 78.4837 96.392 78.7444C96.7831 79.1356 97.1742 79.5267 97.3046 80.0482C97.5654 80.5697 97.5654 81.2216 97.5654 81.8735C97.5654 82.5254 97.435 83.0469 97.3046 83.438C97.1742 83.9595 97.0439 84.2203 96.7831 84.6114C96.5224 84.8722 96.392 85.1329 96.1312 85.2633C95.8705 85.3937 95.6097 85.5241 95.2186 85.6545C94.8274 85.7848 94.4363 85.7848 93.9148 85.7848H91.0465V85.9152ZM92.0895 85.0026H93.7844C94.3059 85.0026 94.6971 85.0026 94.9578 84.8722C95.2186 84.7418 95.4793 84.6114 95.6097 84.4811C95.8705 84.2203 96.0008 83.9595 96.1312 83.438C96.2616 83.0469 96.392 82.5254 96.392 81.8735C96.392 81.0912 96.2616 80.4393 96.0008 80.0482C95.7401 79.6571 95.349 79.2659 94.9578 79.1356C94.6971 79.0052 94.1755 79.0052 93.654 79.0052H91.9591V85.0026H92.0895Z" fill="#373435"/>
</svg>
